<svg xmlns="http://www.w3.org/2000/svg" enable-background="new 0 0 496 496" viewBox="0 0 310 339"><defs><clipPath id="d" clipPathUnits="userSpaceOnUse"><path fill="#b3b564" stroke-width="3.5" d="M-84 936H965v487H-84z" opacity=".8"/></clipPath><clipPath id="e" clipPathUnits="userSpaceOnUse"><path fill="#b3b564" stroke-width="4.9" d="M-144-223h593v870h-593z" opacity=".8"/></clipPath><clipPath id="i" clipPathUnits="userSpaceOnUse"><path fill="#b3b564" stroke-width="11.6" d="M-1018 1342h2309v1331h-2309z" opacity=".8"/></clipPath><clipPath id="g" clipPathUnits="userSpaceOnUse"><path fill="#b3b564" stroke-width="6.2" d="M-182 563h1229v708H-182z" opacity=".8"/></clipPath><clipPath id="a" clipPathUnits="userSpaceOnUse"><path fill="#b3b564" stroke-width="4.7" d="M101 98h836v573H101z" opacity=".8"/></clipPath><filter id="j" color-interpolation-filters="sRGB"><feGaussianBlur result="blur" stdDeviation="10.885 10.885"/></filter><filter id="h" color-interpolation-filters="sRGB"><feGaussianBlur result="blur" stdDeviation="2.42668 2.43"/></filter><filter id="c" color-interpolation-filters="sRGB"><feGaussianBlur result="blur" stdDeviation="11.4892 11.1871"/></filter><filter id="f" color-interpolation-filters="sRGB"><feGaussianBlur result="blur" stdDeviation="3.9371 3.9371"/></filter><filter id="b" color-interpolation-filters="sRGB"><feGaussianBlur result="blur" stdDeviation="9.07254 8.77045"/></filter></defs><g clip-path="url(#a)" filter="url(#b)" opacity=".6" transform="translate(-17 -17) scale(.16906)"><path fill="#7c4b4b" d="M483 251c9 2 14 10 13 18l-6 32c-2 8-11 14-19 12-9-2-14-11-12-19v-1l-40 2-3 2c-4 12-9 24-15 34v4l18 21a19 19 0 0128 25l-6 7c-6 8-17 10-25 4-8-5-10-14-8-21l-25-12-4 1c-12 13-26 24-41 33-1 1-2 2-1 4l6 40 6-2c8-4 17 0 20 9 3 8-1 16-9 20l-29 11c-8 4-18-1-21-9-2-8 2-17 10-20l-23-33c-1-1-2-2-3-1a176 176 0 01-80 2l-3 1-23 37h1a19 19 0 0111 25c0 11-9 17-19 13l-29-11c-10-3-15-14-11-24 3-10 14-15 24-11h1l5-43-2-3c-18-10-35-22-48-37-1-1-3-2-4-1l-35 14c4 8 2 17-6 22-7 5-18 3-23-5l-9-13c-5-7-4-17 3-23 8-5 18-4 24 3l25-28v-3c-10-19-17-39-20-61l-2-2-40-9v4a17 17 0 01-17 17c-10 0-17-7-17-17v-29c0-9 8-17 18-17 9 0 16 8 16 17l40-9c1 0 2-1 2-3 3-23 11-44 22-64l-1-3-19-22-1 2c-5 7-15 8-21 3-7-6-7-15-3-21l13-17a15 15 0 0124 17l27 12 3-1c13-14 27-25 43-35 1 0 2-1 2-3l-6-40-6 2c-8 3-18-1-20-9-3-8 1-17 9-20l30-11c8-3 17 1 20 9s-2 17-10 20h-1l24 34 3 1c13-4 27-5 42-5l2-2 8-22c-9-3-15-11-14-21 2-11 12-18 23-17l10 1c11 2 19 11 18 22-1 8-7 15-15 17l3 23 2 3c18 4 35 10 50 19h4l31-26-5-4c-6-5-7-15-2-22 6-6 16-7 22-2l25 20c7 5 8 15 2 22-6 6-15 7-22 2l-1-1-17 37 1 4c12 12 22 26 30 41l3 2 24-4c-3-10 2-21 12-24s20 2 24 12l5 15c4 9 0 20-10 24-9 4-18 0-23-8l-20 14c-1 1-2 2-1 3a176 176 0 016 55c0 1 0 2 2 3l37 16 1-6c2-8 10-14 18-12z"/><ellipse cx="325.7" cy="155.7" fill="#3d1a1a" rx="24.8" ry="20.7"/><circle cx="236.4" cy="284.6" r="27.1" fill="#3d1a1a"/><circle cx="341.9" cy="270.5" r="19.4" fill="#b56464"/><circle cx="270.3" cy="365" r="18.8" fill="#b56464"/><path fill="#563535" d="M143 234c0-68 32-128 82-166l-17 4-3-1-24-34h1c8-3 13-12 10-20s-12-12-20-9l-30 11c-8 3-12 12-9 20 2 8 12 12 20 9l6-2 6 40c0 2-1 3-2 3-16 10-30 21-43 35l-3 1-27-12a15 15 0 00-24-17l-13 17c-4 6-4 15 3 21 6 5 16 4 21-3l1-2 19 22 1 3c-11 20-19 41-22 64 0 2-1 3-2 3l-40 9c0-9-7-17-16-17-10 0-18 8-18 17v29c0 10 7 17 17 17a17 17 0 0017-17v-4l40 9 2 2c3 22 10 42 20 61v3l-25 28c-6-7-16-8-24-3-7 6-8 16-3 23l9 13c5 8 16 10 23 5 8-5 10-14 6-22l35-14c1-1 3 0 4 1 13 15 30 27 48 37l2 3-5 43h-1c-10-4-21 1-24 11-4 10 1 21 11 24l29 11c10 4 19-2 19-13a19 19 0 00-11-25h-1l23-37 3-1a176 176 0 0040 3 208 208 0 01-111-183z"/><circle cx="152.4" cy="320" r="19.6" fill="#3d1a1a"/><path fill="#b56464" d="M298 234h-7a7 7 0 110-15h7a7 7 0 110 15zM209 365h-6a7 7 0 110-15h6a7 7 0 110 15z"/><path fill="#3d1a1a" d="M139 255h-6a7 7 0 110-15h6a7 7 0 110 15z"/><path fill="#b56464" d="M273 124h-10a7 7 0 110-15h10a7 7 0 110 15z"/><path fill="#3d1a1a" d="M333 340h-11a7 7 0 110-15h11a7 7 0 110 15z"/><ellipse cx="191.5" cy="176.4" fill="#3d1a1a" rx="51.7" ry="43.1" transform="rotate(-38 192 176)"/></g><g filter="url(#c)" opacity=".6" transform="matrix(.0675 0 0 .0675 109 252)"><path fill="#507c4b" d="M496 800c8 2 14 10 12 18l-6 32c-2 8-10 14-19 12-8-2-13-11-11-19v-1l-41 2-3 2c-3 12-9 24-15 34v4l18 21a19 19 0 0128 25l-5 7c-6 8-18 10-26 4-7-5-10-14-7-21l-26-12-3 1c-12 13-26 25-42 34l-1 3 7 40 5-2c8-4 18 1 21 9 2 8-2 17-10 20l-29 11c-8 4-17-1-20-9s1-17 9-20h1l-24-33-3-1a176 176 0 01-79 2l-3 1-24 37 1 1a19 19 0 0111 24c0 11-8 17-19 13l-29-11c-9-3-14-14-11-23 3-11 15-16 25-12l5-43-1-3c-19-10-35-22-49-37l-3-1-36 15c4 7 2 17-5 21-8 5-18 3-23-4l-9-14c-6-7-4-17 3-22 7-6 18-5 23 3l25-29 1-3c-11-18-18-39-21-61l-2-2-40-9v4a17 17 0 01-17 17c-9 0-17-7-17-17l1-29c0-9 8-17 17-17s17 8 16 17l40-9c1 0 2-1 2-3 3-23 11-44 22-63v-4l-19-22-2 2c-5 7-15 8-21 3s-7-15-2-21l12-17a15 15 0 0125 17l26 12 3-1c13-14 27-25 44-35l1-3-6-40-6 2c-8 3-17-1-20-9s2-17 10-20l29-11c8-3 17 1 20 9s-1 17-9 20h-1l23 34 3 1c14-4 28-5 42-5l3-2 7-22c-8-2-14-11-13-21 1-11 11-18 22-17l11 1c11 2 19 11 17 22-1 9-7 15-14 17l2 23 3 3c18 4 34 10 50 19h3l32-26-5-4c-7-5-8-15-2-22 5-6 15-7 22-2l24 20c7 5 8 16 2 22-5 7-15 7-21 2l-1-1-17 37v4c12 12 23 26 31 41 0 1 1 2 3 2l24-4c-4-10 1-20 12-24 9-3 20 2 23 12l6 15c3 9-1 20-10 24s-19 0-24-7l-20 13-1 3a176 176 0 016 55l2 3 37 16 2-6c1-8 9-14 18-12z"/><ellipse cx="338.1" cy="704.8" fill="#1c3d1a" rx="24.8" ry="20.7"/><circle cx="248.8" cy="833.7" r="27.1" fill="#1c3d1a"/><circle cx="354.3" cy="819.6" r="19.4" fill="#64b56f"/><circle cx="282.7" cy="914.1" r="18.8" fill="#64b56f"/><path fill="#365635" d="M155 783c0-68 33-128 82-166l-17 4-3-1-23-34h1c8-3 12-12 9-20s-12-12-20-9l-29 11c-8 3-13 12-10 20s12 12 20 9l6-2 6 40-1 3c-17 10-31 21-44 35l-3 1-26-12a15 15 0 00-25-17l-12 17c-5 6-4 16 2 21s16 4 21-3l2-2 19 22v4c-11 19-19 40-22 63 0 2-1 3-2 3l-40 9c1-9-7-17-16-17s-17 8-17 17l-1 29c0 10 8 17 17 17a17 17 0 0017-17v-4l40 9 2 2c3 22 10 43 21 61l-1 3-25 29c-5-8-16-9-23-3-7 5-9 15-3 22l9 14c5 7 15 9 23 4 7-4 9-14 5-21l36-15 3 1c14 15 30 27 49 37l1 3-5 43c-10-4-22 1-25 12-3 9 2 20 11 23l29 11c11 4 19-2 19-13a19 19 0 00-11-24l-1-1 24-37 3-1a176 176 0 0039 3 208 208 0 01-111-183z"/><circle cx="164.9" cy="869.1" r="19.6" fill="#1c3d1a"/><path fill="#64b56f" d="M310 783h-7a7 7 0 110-15h7a7 7 0 110 15zM222 914h-7a7 7 0 110-15h7a7 7 0 110 15z"/><path fill="#1d3d1a" d="M152 805h-7a7 7 0 110-15h7a7 7 0 110 15z"/><path fill="#64b56f" d="M285 673h-9a7 7 0 110-15h9a7 7 0 110 15z"/><path fill="#1c3d1a" d="M345 889h-10a7 7 0 110-15h10a7 7 0 110 15z"/><ellipse cx="-289.1" cy="695.9" fill="#1c3d1a" rx="51.6" ry="43.1" transform="rotate(-38)"/></g><g clip-path="url(#d)" opacity=".6" transform="translate(22 99) scale(.16906)"><path fill="#7a7c4b" d="M495 1357c8 2 14 10 12 18l-6 31c-2 9-10 15-19 13-8-2-13-11-11-19v-1l-41 2-2 2c-4 12-10 23-16 34v3l18 22a19 19 0 0128 25l-5 7c-6 8-18 10-26 4-7-5-10-14-7-21l-26-12-3 1c-12 13-26 24-42 33l-1 3 7 41 5-3c9-3 18 1 21 10 3 8-2 16-10 19l-29 12c-8 3-17-1-20-9s1-17 9-20h1l-24-33c0-1-2-2-3-1a176 176 0 01-79 2c-1-1-3 0-3 1l-24 37h1a19 19 0 0111 25c0 11-8 17-19 13l-29-11c-9-3-14-14-11-24s15-15 25-11l5-43-1-3c-19-10-35-22-49-37-1-1-2-2-3-1l-36 14c4 8 2 17-5 22-8 5-18 3-23-5l-9-13c-5-7-4-17 3-23s18-4 23 3l25-28 1-3c-11-19-18-39-21-61l-2-2-40-10v5a17 17 0 01-17 17c-9 0-17-8-17-17l1-29c0-9 8-17 17-17s17 8 17 17l39-9 2-3c3-23 11-44 22-64v-3l-19-22-2 2c-5 7-14 8-21 2-6-5-7-14-2-20l12-17a15 15 0 0125 17l26 11h4c12-14 27-26 43-35l1-3-6-40-6 2c-8 3-17-1-20-10-3-8 2-16 10-19l29-11c8-4 18 1 20 9 3 8-1 17-9 20h-1l23 33 3 2c14-4 28-5 42-5l3-2 8-22c-9-3-15-11-14-21 1-11 12-18 22-17l11 1c11 2 19 11 17 22 0 8-6 15-14 17l3 23 2 3c18 4 34 10 50 19h3l32-26-5-4c-7-5-8-16-2-22 5-7 15-7 22-2l24 20c7 5 8 15 2 22-5 6-15 7-21 2l-1-1-17 37c-1 1 0 3 1 3 11 13 22 27 30 42 0 1 1 2 3 2l24-4c-4-10 1-21 12-24 9-3 20 2 23 12l6 15c3 9-1 20-10 24s-19 0-24-8l-20 14-1 3a176 176 0 016 55l2 3 37 16 2-6c1-8 9-14 18-12z"/><ellipse cx="337.2" cy="1261.6" fill="#3c3d1a" rx="24.8" ry="20.7"/><circle cx="247.9" cy="1390.5" r="27.1" fill="#3c3d1a"/><circle cx="353.3" cy="1376.4" r="19.4" fill="#b3b564"/><circle cx="281.8" cy="1470.9" r="18.8" fill="#b3b564"/><path fill="#565635" d="M154 1339c0-67 33-127 82-165l-17 4-3-2-23-33h1c8-3 12-12 9-20-2-8-12-13-20-9l-29 11c-8 3-13 11-10 19 3 9 12 13 20 10l6-2 6 40-1 3c-16 9-31 21-43 35h-4l-26-11a15 15 0 00-25-17l-12 17c-5 6-4 15 2 20 7 6 16 5 21-2l2-2 19 22v3c-11 20-19 41-22 64l-2 3-39 9c0-9-8-17-17-17s-17 8-17 17l-1 29c0 9 8 17 17 17a17 17 0 0017-17v-5l40 10 2 2c3 22 10 42 21 61l-1 3-25 28c-5-7-16-9-23-3s-8 16-3 23l9 13c5 8 15 10 23 5 7-5 9-14 5-22l36-14c1-1 2 0 3 1 14 15 30 27 49 37l1 3-5 43c-10-4-22 1-25 11s2 21 11 24l29 11c11 4 19-2 19-13a19 19 0 00-11-25h-1l24-37c0-1 2-2 3-1a176 176 0 0039 3 208 208 0 01-111-184z"/><circle cx="163.9" cy="1425.9" r="19.6" fill="#3c3d1a"/><path fill="#b3b564" d="M309 1339h-7a7 7 0 110-15h7a7 7 0 110 15zM221 1471h-7a7 7 0 110-15h7a7 7 0 110 15z"/><path fill="#3c3d1a" d="M151 1361h-7a7 7 0 110-15h7a7 7 0 110 15z"/><path fill="#b3b564" d="M284 1230h-9a7 7 0 110-15h9a7 7 0 110 15z"/><path fill="#3c3d1a" d="M344 1446h-10a7 7 0 110-15h10a7 7 0 110 15z"/><ellipse cx="-634.6" cy="1132.5" fill="#3c3d1a" rx="51.6" ry="43.1" transform="rotate(-38)"/></g><g clip-path="url(#e)" filter="url(#f)" opacity=".6" transform="matrix(.12123 0 0 .12123 255 261)"><path fill="#7c4b4b" d="M483 251c9 2 14 10 13 18l-6 32c-2 8-11 14-19 12-9-2-14-11-12-19v-1l-40 2-3 2c-4 12-9 24-15 34v4l18 21a19 19 0 0128 25l-6 7c-6 8-17 10-25 4-8-5-10-14-8-21l-25-12-4 1c-12 13-26 24-41 33-1 1-2 2-1 4l6 40 6-2c8-4 17 0 20 9 3 8-1 16-9 20l-29 11c-8 4-18-1-21-9-2-8 2-17 10-20l-23-33c-1-1-2-2-3-1a176 176 0 01-80 2l-3 1-23 37h1a19 19 0 0111 25c0 11-9 17-19 13l-29-11c-10-3-15-14-11-24 3-10 14-15 24-11h1l5-43-2-3c-18-10-35-22-48-37-1-1-3-2-4-1l-35 14c4 8 2 17-6 22-7 5-18 3-23-5l-9-13c-5-7-4-17 3-23 8-5 18-4 24 3l25-28v-3c-10-19-17-39-20-61l-2-2-40-9v4a17 17 0 01-17 17c-10 0-17-7-17-17v-29c0-9 8-17 18-17 9 0 16 8 16 17l40-9c1 0 2-1 2-3 3-23 11-44 22-64l-1-3-19-22-1 2c-5 7-15 8-21 3-7-6-7-15-3-21l13-17a15 15 0 0124 17l27 12 3-1c13-14 27-25 43-35 1 0 2-1 2-3l-6-40-6 2c-8 3-18-1-20-9-3-8 1-17 9-20l30-11c8-3 17 1 20 9s-2 17-10 20h-1l24 34 3 1c13-4 27-5 42-5l2-2 8-22c-9-3-15-11-14-21 2-11 12-18 23-17l10 1c11 2 19 11 18 22-1 8-7 15-15 17l3 23 2 3c18 4 35 10 50 19h4l31-26-5-4c-6-5-7-15-2-22 6-6 16-7 22-2l25 20c7 5 8 15 2 22-6 6-15 7-22 2l-1-1-17 37 1 4c12 12 22 26 30 41l3 2 24-4c-3-10 2-21 12-24s20 2 24 12l5 15c4 9 0 20-10 24-9 4-18 0-23-8l-20 14c-1 1-2 2-1 3a176 176 0 016 55c0 1 0 2 2 3l37 16 1-6c2-8 10-14 18-12z"/><ellipse cx="325.7" cy="155.7" fill="#3d1a1a" rx="24.8" ry="20.7"/><circle cx="236.4" cy="284.6" r="27.1" fill="#3d1a1a"/><circle cx="341.9" cy="270.5" r="19.4" fill="#b56464"/><circle cx="270.3" cy="365" r="18.8" fill="#b56464"/><path fill="#563535" d="M143 234c0-68 32-128 82-166l-17 4-3-1-24-34h1c8-3 13-12 10-20s-12-12-20-9l-30 11c-8 3-12 12-9 20 2 8 12 12 20 9l6-2 6 40c0 2-1 3-2 3-16 10-30 21-43 35l-3 1-27-12a15 15 0 00-24-17l-13 17c-4 6-4 15 3 21 6 5 16 4 21-3l1-2 19 22 1 3c-11 20-19 41-22 64 0 2-1 3-2 3l-40 9c0-9-7-17-16-17-10 0-18 8-18 17v29c0 10 7 17 17 17a17 17 0 0017-17v-4l40 9 2 2c3 22 10 42 20 61v3l-25 28c-6-7-16-8-24-3-7 6-8 16-3 23l9 13c5 8 16 10 23 5 8-5 10-14 6-22l35-14c1-1 3 0 4 1 13 15 30 27 48 37l2 3-5 43h-1c-10-4-21 1-24 11-4 10 1 21 11 24l29 11c10 4 19-2 19-13a19 19 0 00-11-25h-1l23-37 3-1a176 176 0 0040 3 208 208 0 01-111-183z"/><circle cx="152.4" cy="320" r="19.6" fill="#3d1a1a"/><path fill="#b56464" d="M298 234h-7a7 7 0 110-15h7a7 7 0 110 15zM209 365h-6a7 7 0 110-15h6a7 7 0 110 15z"/><path fill="#3d1a1a" d="M139 255h-6a7 7 0 110-15h6a7 7 0 110 15z"/><path fill="#b56464" d="M273 124h-10a7 7 0 110-15h10a7 7 0 110 15z"/><path fill="#3d1a1a" d="M333 340h-11a7 7 0 110-15h11a7 7 0 110 15z"/><ellipse cx="191.5" cy="176.4" fill="#3d1a1a" rx="51.7" ry="43.1" transform="rotate(-38 192 176)"/></g><g clip-path="url(#g)" filter="url(#h)" opacity=".6" transform="matrix(.0968 0 0 .0968 229 -55)"><path fill="#507c4b" d="M496 800c8 2 14 10 12 18l-6 32c-2 8-10 14-19 12-8-2-13-11-11-19v-1l-41 2-3 2c-3 12-9 24-15 34v4l18 21a19 19 0 0128 25l-5 7c-6 8-18 10-26 4-7-5-10-14-7-21l-26-12-3 1c-12 13-26 25-42 34l-1 3 7 40 5-2c8-4 18 1 21 9 2 8-2 17-10 20l-29 11c-8 4-17-1-20-9s1-17 9-20h1l-24-33-3-1a176 176 0 01-79 2l-3 1-24 37 1 1a19 19 0 0111 24c0 11-8 17-19 13l-29-11c-9-3-14-14-11-23 3-11 15-16 25-12l5-43-1-3c-19-10-35-22-49-37l-3-1-36 15c4 7 2 17-5 21-8 5-18 3-23-4l-9-14c-6-7-4-17 3-22 7-6 18-5 23 3l25-29 1-3c-11-18-18-39-21-61l-2-2-40-9v4a17 17 0 01-17 17c-9 0-17-7-17-17l1-29c0-9 8-17 17-17s17 8 16 17l40-9c1 0 2-1 2-3 3-23 11-44 22-63v-4l-19-22-2 2c-5 7-15 8-21 3s-7-15-2-21l12-17a15 15 0 0125 17l26 12 3-1c13-14 27-25 44-35l1-3-6-40-6 2c-8 3-17-1-20-9s2-17 10-20l29-11c8-3 17 1 20 9s-1 17-9 20h-1l23 34 3 1c14-4 28-5 42-5l3-2 7-22c-8-2-14-11-13-21 1-11 11-18 22-17l11 1c11 2 19 11 17 22-1 9-7 15-14 17l2 23 3 3c18 4 34 10 50 19h3l32-26-5-4c-7-5-8-15-2-22 5-6 15-7 22-2l24 20c7 5 8 16 2 22-5 7-15 7-21 2l-1-1-17 37v4c12 12 23 26 31 41 0 1 1 2 3 2l24-4c-4-10 1-20 12-24 9-3 20 2 23 12l6 15c3 9-1 20-10 24s-19 0-24-7l-20 13-1 3a176 176 0 016 55l2 3 37 16 2-6c1-8 9-14 18-12z"/><ellipse cx="338.1" cy="704.8" fill="#1c3d1a" rx="24.8" ry="20.7"/><circle cx="248.8" cy="833.7" r="27.1" fill="#1c3d1a"/><circle cx="354.3" cy="819.6" r="19.4" fill="#64b56f"/><circle cx="282.7" cy="914.1" r="18.8" fill="#64b56f"/><path fill="#365635" d="M155 783c0-68 33-128 82-166l-17 4-3-1-23-34h1c8-3 12-12 9-20s-12-12-20-9l-29 11c-8 3-13 12-10 20s12 12 20 9l6-2 6 40-1 3c-17 10-31 21-44 35l-3 1-26-12a15 15 0 00-25-17l-12 17c-5 6-4 16 2 21s16 4 21-3l2-2 19 22v4c-11 19-19 40-22 63 0 2-1 3-2 3l-40 9c1-9-7-17-16-17s-17 8-17 17l-1 29c0 10 8 17 17 17a17 17 0 0017-17v-4l40 9 2 2c3 22 10 43 21 61l-1 3-25 29c-5-8-16-9-23-3-7 5-9 15-3 22l9 14c5 7 15 9 23 4 7-4 9-14 5-21l36-15 3 1c14 15 30 27 49 37l1 3-5 43c-10-4-22 1-25 12-3 9 2 20 11 23l29 11c11 4 19-2 19-13a19 19 0 00-11-24l-1-1 24-37 3-1a176 176 0 0039 3 208 208 0 01-111-183z"/><circle cx="164.9" cy="869.1" r="19.6" fill="#1c3d1a"/><path fill="#64b56f" d="M310 783h-7a7 7 0 110-15h7a7 7 0 110 15zM222 914h-7a7 7 0 110-15h7a7 7 0 110 15z"/><path fill="#1d3d1a" d="M152 805h-7a7 7 0 110-15h7a7 7 0 110 15z"/><path fill="#64b56f" d="M285 673h-9a7 7 0 110-15h9a7 7 0 110 15z"/><path fill="#1c3d1a" d="M345 889h-10a7 7 0 110-15h10a7 7 0 110 15z"/><ellipse cx="-289.1" cy="695.9" fill="#1c3d1a" rx="51.6" ry="43.1" transform="rotate(-38)"/></g><g clip-path="url(#i)" filter="url(#j)" opacity=".6" transform="matrix(.0515 0 0 .0515 264 -69)"><path fill="#7a7c4b" d="M495 1357c8 2 14 10 12 18l-6 31c-2 9-10 15-19 13-8-2-13-11-11-19v-1l-41 2-2 2c-4 12-10 23-16 34v3l18 22a19 19 0 0128 25l-5 7c-6 8-18 10-26 4-7-5-10-14-7-21l-26-12-3 1c-12 13-26 24-42 33l-1 3 7 41 5-3c9-3 18 1 21 10 3 8-2 16-10 19l-29 12c-8 3-17-1-20-9s1-17 9-20h1l-24-33c0-1-2-2-3-1a176 176 0 01-79 2c-1-1-3 0-3 1l-24 37h1a19 19 0 0111 25c0 11-8 17-19 13l-29-11c-9-3-14-14-11-24s15-15 25-11l5-43-1-3c-19-10-35-22-49-37-1-1-2-2-3-1l-36 14c4 8 2 17-5 22-8 5-18 3-23-5l-9-13c-5-7-4-17 3-23s18-4 23 3l25-28 1-3c-11-19-18-39-21-61l-2-2-40-10v5a17 17 0 01-17 17c-9 0-17-8-17-17l1-29c0-9 8-17 17-17s17 8 17 17l39-9 2-3c3-23 11-44 22-64v-3l-19-22-2 2c-5 7-14 8-21 2-6-5-7-14-2-20l12-17a15 15 0 0125 17l26 11h4c12-14 27-26 43-35l1-3-6-40-6 2c-8 3-17-1-20-10-3-8 2-16 10-19l29-11c8-4 18 1 20 9 3 8-1 17-9 20h-1l23 33 3 2c14-4 28-5 42-5l3-2 8-22c-9-3-15-11-14-21 1-11 12-18 22-17l11 1c11 2 19 11 17 22 0 8-6 15-14 17l3 23 2 3c18 4 34 10 50 19h3l32-26-5-4c-7-5-8-16-2-22 5-7 15-7 22-2l24 20c7 5 8 15 2 22-5 6-15 7-21 2l-1-1-17 37c-1 1 0 3 1 3 11 13 22 27 30 42 0 1 1 2 3 2l24-4c-4-10 1-21 12-24 9-3 20 2 23 12l6 15c3 9-1 20-10 24s-19 0-24-8l-20 14-1 3a176 176 0 016 55l2 3 37 16 2-6c1-8 9-14 18-12z"/><ellipse cx="337.2" cy="1261.6" fill="#3c3d1a" rx="24.8" ry="20.7"/><circle cx="247.9" cy="1390.5" r="27.1" fill="#3c3d1a"/><circle cx="353.3" cy="1376.4" r="19.4" fill="#b3b564"/><circle cx="281.8" cy="1470.9" r="18.8" fill="#b3b564"/><path fill="#565635" d="M154 1339c0-67 33-127 82-165l-17 4-3-2-23-33h1c8-3 12-12 9-20-2-8-12-13-20-9l-29 11c-8 3-13 11-10 19 3 9 12 13 20 10l6-2 6 40-1 3c-16 9-31 21-43 35h-4l-26-11a15 15 0 00-25-17l-12 17c-5 6-4 15 2 20 7 6 16 5 21-2l2-2 19 22v3c-11 20-19 41-22 64l-2 3-39 9c0-9-8-17-17-17s-17 8-17 17l-1 29c0 9 8 17 17 17a17 17 0 0017-17v-5l40 10 2 2c3 22 10 42 21 61l-1 3-25 28c-5-7-16-9-23-3s-8 16-3 23l9 13c5 8 15 10 23 5 7-5 9-14 5-22l36-14c1-1 2 0 3 1 14 15 30 27 49 37l1 3-5 43c-10-4-22 1-25 11s2 21 11 24l29 11c11 4 19-2 19-13a19 19 0 00-11-25h-1l24-37c0-1 2-2 3-1a176 176 0 0039 3 208 208 0 01-111-184z"/><circle cx="163.9" cy="1425.9" r="19.6" fill="#3c3d1a"/><path fill="#b3b564" d="M309 1339h-7a7 7 0 110-15h7a7 7 0 110 15zM221 1471h-7a7 7 0 110-15h7a7 7 0 110 15z"/><path fill="#3c3d1a" d="M151 1361h-7a7 7 0 110-15h7a7 7 0 110 15z"/><path fill="#b3b564" d="M284 1230h-9a7 7 0 110-15h9a7 7 0 110 15z"/><path fill="#3c3d1a" d="M344 1446h-10a7 7 0 110-15h10a7 7 0 110 15z"/><ellipse cx="-634.6" cy="1132.5" fill="#3c3d1a" rx="51.6" ry="43.1" transform="rotate(-38)"/></g><g opacity=".6" transform="translate(64 -52) scale(.04992)"><path fill="#7a7c4b" d="M495 1357c8 2 14 10 12 18l-6 31c-2 9-10 15-19 13-8-2-13-11-11-19v-1l-41 2-2 2c-4 12-10 23-16 34v3l18 22a19 19 0 0128 25l-5 7c-6 8-18 10-26 4-7-5-10-14-7-21l-26-12-3 1c-12 13-26 24-42 33l-1 3 7 41 5-3c9-3 18 1 21 10 3 8-2 16-10 19l-29 12c-8 3-17-1-20-9s1-17 9-20h1l-24-33c0-1-2-2-3-1a176 176 0 01-79 2c-1-1-3 0-3 1l-24 37h1a19 19 0 0111 25c0 11-8 17-19 13l-29-11c-9-3-14-14-11-24s15-15 25-11l5-43-1-3c-19-10-35-22-49-37-1-1-2-2-3-1l-36 14c4 8 2 17-5 22-8 5-18 3-23-5l-9-13c-5-7-4-17 3-23s18-4 23 3l25-28 1-3c-11-19-18-39-21-61l-2-2-40-10v5a17 17 0 01-17 17c-9 0-17-8-17-17l1-29c0-9 8-17 17-17s17 8 17 17l39-9 2-3c3-23 11-44 22-64v-3l-19-22-2 2c-5 7-14 8-21 2-6-5-7-14-2-20l12-17a15 15 0 0125 17l26 11h4c12-14 27-26 43-35l1-3-6-40-6 2c-8 3-17-1-20-10-3-8 2-16 10-19l29-11c8-4 18 1 20 9 3 8-1 17-9 20h-1l23 33 3 2c14-4 28-5 42-5l3-2 8-22c-9-3-15-11-14-21 1-11 12-18 22-17l11 1c11 2 19 11 17 22 0 8-6 15-14 17l3 23 2 3c18 4 34 10 50 19h3l32-26-5-4c-7-5-8-16-2-22 5-7 15-7 22-2l24 20c7 5 8 15 2 22-5 6-15 7-21 2l-1-1-17 37c-1 1 0 3 1 3 11 13 22 27 30 42 0 1 1 2 3 2l24-4c-4-10 1-21 12-24 9-3 20 2 23 12l6 15c3 9-1 20-10 24s-19 0-24-8l-20 14-1 3a176 176 0 016 55l2 3 37 16 2-6c1-8 9-14 18-12z"/><ellipse cx="337.2" cy="1261.6" fill="#3c3d1a" rx="24.8" ry="20.7"/><circle cx="247.9" cy="1390.5" r="27.1" fill="#3c3d1a"/><circle cx="353.3" cy="1376.4" r="19.4" fill="#b3b564"/><circle cx="281.8" cy="1470.9" r="18.8" fill="#b3b564"/><path fill="#565635" d="M154 1339c0-67 33-127 82-165l-17 4-3-2-23-33h1c8-3 12-12 9-20-2-8-12-13-20-9l-29 11c-8 3-13 11-10 19 3 9 12 13 20 10l6-2 6 40-1 3c-16 9-31 21-43 35h-4l-26-11a15 15 0 00-25-17l-12 17c-5 6-4 15 2 20 7 6 16 5 21-2l2-2 19 22v3c-11 20-19 41-22 64l-2 3-39 9c0-9-8-17-17-17s-17 8-17 17l-1 29c0 9 8 17 17 17a17 17 0 0017-17v-5l40 10 2 2c3 22 10 42 21 61l-1 3-25 28c-5-7-16-9-23-3s-8 16-3 23l9 13c5 8 15 10 23 5 7-5 9-14 5-22l36-14c1-1 2 0 3 1 14 15 30 27 49 37l1 3-5 43c-10-4-22 1-25 11s2 21 11 24l29 11c11 4 19-2 19-13a19 19 0 00-11-25h-1l24-37c0-1 2-2 3-1a176 176 0 0039 3 208 208 0 01-111-184z"/><circle cx="163.9" cy="1425.9" r="19.6" fill="#3c3d1a"/><path fill="#b3b564" d="M309 1339h-7a7 7 0 110-15h7a7 7 0 110 15zM221 1471h-7a7 7 0 110-15h7a7 7 0 110 15z"/><path fill="#3c3d1a" d="M151 1361h-7a7 7 0 110-15h7a7 7 0 110 15z"/><path fill="#b3b564" d="M284 1230h-9a7 7 0 110-15h9a7 7 0 110 15z"/><path fill="#3c3d1a" d="M344 1446h-10a7 7 0 110-15h10a7 7 0 110 15z"/><ellipse cx="-634.6" cy="1132.5" fill="#3c3d1a" rx="51.6" ry="43.1" transform="rotate(-38)"/></g></svg>