<svg width="105" height="105" viewBox="0 0 105 105" fill="none" xmlns="http://www.w3.org/2000/svg">
<path d="M52.5 0C42.1165 0 31.9662 3.07907 23.3326 8.84784C14.699 14.6166 7.96995 22.816 3.99635 32.4091C0.0227474 42.0022 -1.01693 52.5582 1.0088 62.7422C3.03452 72.9262 8.03466 82.2808 15.3769 89.6231C22.7192 96.9653 32.0738 101.965 42.2578 103.991C52.4418 106.017 62.9978 104.977 72.5909 101.004C82.184 97.0301 90.3834 90.301 96.1522 81.6674C101.921 73.0338 105 62.8835 105 52.5C105 38.5761 99.4688 25.2225 89.6231 15.3769C79.7775 5.53123 66.4239 0 52.5 0ZM100.546 42.3387H87.7766C86.4799 42.3413 85.1955 42.0867 83.9978 41.5896C82.8001 41.0925 81.713 40.3628 80.7992 39.4427L80.3589 38.9516C79.2663 37.8644 77.9686 37.0051 76.5411 36.4236C75.1136 35.8422 73.5848 35.5501 72.0436 35.5645C70.4805 35.5637 68.9307 35.2767 67.471 34.7177C68.6906 32.4482 69.3639 29.9255 69.4374 27.3501C69.5109 24.7747 68.9825 22.2176 67.8944 19.8823C66.601 17.0235 64.5144 14.5959 61.8823 12.8879L62.3395 12.2782L67.8605 5.85968C76.0166 8.5619 83.3242 13.3502 89.0579 19.7494C94.7916 26.1485 98.752 33.936 100.546 42.3387ZM63.4403 34.8193L52.5 49.6379L41.5766 34.8193C40.1365 32.9001 39.2463 30.6249 39.0016 28.2379C38.757 25.851 39.1671 23.4424 40.1879 21.271C41.1513 19.1074 42.6842 17.2462 44.623 15.886C46.5618 14.5258 48.8337 13.7179 51.196 13.5484C51.6363 13.5484 52.0597 13.5484 52.5 13.5484C52.9403 13.5484 53.3637 13.5484 53.804 13.5484C56.1627 13.7148 58.432 14.5177 60.3705 15.8716C62.309 17.2256 63.844 19.0799 64.8121 21.2371C65.833 23.4086 66.2431 25.8171 65.9984 28.2041C65.7537 30.591 64.8635 32.8663 63.4234 34.7855L63.4403 34.8193ZM16.6137 19.0185L20.1194 22.5073C21.3338 23.726 22.0159 25.3763 22.0161 27.0968V30.4839C22.0135 31.7806 22.2681 33.065 22.7652 34.2627C23.2623 35.4603 23.992 36.5475 24.9121 37.4613L26.8936 39.4427C28.108 40.6614 28.7901 42.3117 28.7903 44.0322C28.7877 45.329 29.0423 46.6134 29.5394 47.811C30.0365 49.0087 30.7662 50.0959 31.6863 51.0097L39.2395 58.5798C40.2217 59.5599 41.0009 60.724 41.5325 62.0055C42.0641 63.2871 42.3378 64.6609 42.3378 66.0484C42.3378 67.4358 42.0641 68.8097 41.5325 70.0912C41.0009 71.3728 40.2217 72.5369 39.2395 73.5169C36.2511 76.5284 32.694 78.9161 28.775 80.5413C24.856 82.1665 20.6531 82.9967 16.4105 82.9838H14.0395C6.71941 73.7882 2.95154 62.2662 3.42416 50.5222C3.89678 38.7782 8.57834 27.5962 16.6137 19.0185ZM16.9355 86.3709C26.212 86.2642 35.0769 82.5249 41.6274 75.9556C44.2398 73.3337 45.7065 69.7834 45.7065 66.0822C45.7065 62.3811 44.2398 58.8308 41.6274 56.2089L34.0573 48.6556C33.4549 48.0467 32.9788 47.3249 32.6562 46.5315C32.3336 45.738 32.1709 44.8887 32.1774 44.0322C32.1801 42.7355 31.9255 41.4511 31.4284 40.2535C30.9313 39.0558 30.2016 37.9686 29.2815 37.0548L27.3 35.0734C26.0855 33.8547 25.4035 32.2044 25.4032 30.4839V27.0968C25.4059 25.8 25.1513 24.5157 24.6542 23.318C24.1571 22.1203 23.4274 21.0331 22.5073 20.1194L19.0186 16.6137C24.99 11.0195 32.2675 7.00989 40.1868 4.95094C48.106 2.892 56.4148 2.84925 64.3549 4.82661L59.7653 10.1613C59.4436 10.5677 59.1218 10.9742 58.8169 11.3976C57.3018 10.7486 55.6975 10.3318 54.0581 10.1613C53.0211 10.0766 51.9789 10.0766 50.9419 10.1613C47.9773 10.3652 45.1238 11.3711 42.6867 13.0714C40.2496 14.7717 38.3205 17.1025 37.1057 19.8145C35.831 22.5269 35.3153 25.534 35.6135 28.5161C35.9117 31.4982 37.0126 34.3437 38.7992 36.75L51.0944 53.4145C51.2521 53.6248 51.4567 53.7956 51.6918 53.9131C51.927 54.0307 52.1863 54.0919 52.4492 54.0919C52.7121 54.0919 52.9714 54.0307 53.2066 53.9131C53.4417 53.7956 53.6463 53.6248 53.804 53.4145L65.5573 37.4952C67.5855 38.3895 69.7761 38.8564 71.9927 38.8669C73.0973 38.8766 74.1888 39.1062 75.2036 39.5423C76.2184 39.9785 77.1362 40.6125 77.9032 41.4072L78.3266 41.8476C79.5643 43.0905 81.0378 44.0738 82.6605 44.7397C84.2832 45.4057 86.0226 45.7409 87.7766 45.7258H101.139C101.451 47.9704 101.61 50.2337 101.613 52.5C101.613 53.0758 101.613 53.6347 101.613 54.1935H101.376C99.6332 54.1874 97.9066 54.527 96.2962 55.1927C94.6857 55.8584 93.2232 56.837 91.9936 58.0718C91.0738 58.998 89.9783 59.7312 88.7715 60.2285C87.5646 60.7258 86.2706 60.9771 84.9653 60.9677H81.0024C79.2598 60.9616 77.5333 61.3012 75.9228 61.9669C74.3123 62.6326 72.8499 63.6112 71.6202 64.846L69.9266 66.5395C68.6918 67.7692 67.7133 69.2316 67.0476 70.8421C66.3819 72.4526 66.0423 74.1791 66.0484 75.9218V76.4976C66.051 77.7943 65.7964 79.0787 65.2993 80.2764C64.8022 81.474 64.0725 82.5612 63.1524 83.475C61.9177 84.7047 60.9391 86.1671 60.2734 87.7776C59.6077 89.3881 59.2681 91.1146 59.2742 92.8572V101.139C57.0296 101.451 54.7663 101.61 52.5 101.613C45.8478 101.62 39.2638 100.272 33.1494 97.6515C27.035 95.031 21.5183 91.1929 16.9355 86.3709ZM62.6613 100.58V92.8572C62.6587 91.5605 62.9133 90.2761 63.4104 89.0784C63.9075 87.8808 64.6372 86.7936 65.5573 85.8798C66.792 84.6501 67.7706 83.1877 68.4363 81.5772C69.102 79.9667 69.4416 78.2402 69.4355 76.4976V75.9218C69.4329 74.625 69.6875 73.3406 70.1846 72.143C70.6817 70.9453 71.4114 69.8581 72.3315 68.9443L74.025 67.2508C74.9388 66.3307 76.026 65.601 77.2236 65.1039C78.4213 64.6068 79.7057 64.3522 81.0024 64.3548H84.9653C86.708 64.361 88.4345 64.0213 90.045 63.3556C91.6555 62.6899 93.1179 61.7114 94.3476 60.4766C95.2613 59.5565 96.3485 58.8268 97.5462 58.3297C98.7439 57.8326 100.028 57.578 101.325 57.5806C100.251 67.9103 95.9299 77.6335 88.983 85.3533C82.0361 93.0731 72.8208 98.3921 62.6613 100.546V100.58Z" fill="black"/>
<path d="M52.5 16.9355C50.4903 16.9355 48.5257 17.5314 46.8547 18.648C45.1837 19.7645 43.8813 21.3515 43.1122 23.2082C42.3431 25.0649 42.1419 27.108 42.534 29.0791C42.926 31.0502 43.8938 32.8608 45.3149 34.2819C46.736 35.703 48.5465 36.6707 50.5176 37.0628C52.4887 37.4549 54.5318 37.2537 56.3886 36.4846C58.2453 35.7155 59.8323 34.4131 60.9488 32.7421C62.0653 31.0711 62.6613 29.1065 62.6613 27.0968C62.6613 24.4018 61.5907 21.8173 59.6851 19.9117C57.7795 18.006 55.195 16.9355 52.5 16.9355ZM52.5 33.871C51.1602 33.871 49.8505 33.4737 48.7365 32.7293C47.6225 31.9849 46.7542 30.927 46.2415 29.6891C45.7287 28.4513 45.5946 27.0893 45.856 25.7752C46.1174 24.4611 46.7625 23.2541 47.7099 22.3067C48.6573 21.3593 49.8644 20.7141 51.1784 20.4527C52.4925 20.1914 53.8546 20.3255 55.0924 20.8382C56.3302 21.351 57.3882 22.2192 58.1325 23.3332C58.8769 24.4472 59.2742 25.757 59.2742 27.0968C59.2742 28.8934 58.5605 30.6164 57.2901 31.8868C56.0197 33.1572 54.2966 33.871 52.5 33.871Z" fill="black"/>
</svg>
