<svg xmlns="http://www.w3.org/2000/svg" width="105" height="105" fill="none"><path d="M52.5 0a52.5 52.5 0 100 105 52.5 52.5 0 000-105zm48.046 42.339h-12.77a9.806 9.806 0 01-6.977-2.896l-.44-.491a11.636 11.636 0 00-8.315-3.387c-1.563-.001-3.113-.288-4.573-.847a16.562 16.562 0 00.423-14.836 16.393 16.393 0 00-6.012-6.994l.458-.61 5.52-6.418a49.265 49.265 0 0132.686 36.479zm-37.106-7.52L52.5 49.638 41.577 34.819a13.21 13.21 0 01-1.39-13.548 13.075 13.075 0 0111.009-7.723h2.608a13.075 13.075 0 0111.008 7.69 13.209 13.209 0 01-1.389 13.547l.017.034zm-46.826-15.8l3.505 3.488a6.503 6.503 0 011.897 4.59v3.387a9.806 9.806 0 002.896 6.977l1.982 1.982a6.503 6.503 0 011.896 4.59 9.806 9.806 0 002.896 6.977l7.553 7.57a10.55 10.55 0 010 14.937 32.025 32.025 0 01-22.828 9.467h-2.372a48.96 48.96 0 012.575-63.965zm.322 67.352a35.445 35.445 0 0024.691-10.415 13.988 13.988 0 000-19.747l-7.57-7.553a6.503 6.503 0 01-1.88-4.624 9.804 9.804 0 00-2.895-6.977L27.3 35.073a6.503 6.503 0 01-1.897-4.59v-3.386a9.804 9.804 0 00-2.896-6.978l-3.488-3.505A48.994 48.994 0 0164.355 4.827l-4.59 5.334c-.321.407-.643.813-.948 1.237a16.392 16.392 0 00-4.759-1.237 19.14 19.14 0 00-3.116 0 16.394 16.394 0 00-13.836 9.653 16.58 16.58 0 001.693 16.936l12.295 16.664a1.693 1.693 0 002.71 0l11.753-15.919a16.14 16.14 0 006.436 1.372 8.317 8.317 0 015.91 2.54l.424.44a13.175 13.175 0 009.45 3.879h13.362c.312 2.244.471 4.508.474 6.774v1.694h-.237a13.176 13.176 0 00-9.382 3.878 9.807 9.807 0 01-7.029 2.896h-3.963a13.176 13.176 0 00-9.382 3.878l-1.693 1.694a13.175 13.175 0 00-3.879 9.382v.576a9.806 9.806 0 01-2.896 6.977 13.177 13.177 0 00-3.878 9.382v8.282a49.682 49.682 0 01-6.774.474 48.992 48.992 0 01-35.564-15.242zM62.66 100.58v-7.723a9.806 9.806 0 012.896-6.977 13.177 13.177 0 003.879-9.382v-.576a9.806 9.806 0 012.895-6.978l1.694-1.693a9.807 9.807 0 016.977-2.896h3.963a13.175 13.175 0 009.383-3.878 9.805 9.805 0 016.977-2.896 49.112 49.112 0 01-38.664 42.965v.034z" fill="#fff" stroke="#000" stroke-opacity=".115" stroke-width=".5"/><path d="M52.5 16.936a10.16 10.16 0 100 20.321 10.16 10.16 0 000-20.321zm0 16.935a6.774 6.774 0 110-13.548 6.774 6.774 0 010 13.548z" fill="#fff" stroke="#000" stroke-opacity=".115" stroke-width=".5"/></svg>