<svg xmlns="http://www.w3.org/2000/svg" viewBox="0 0 319.54 395.43"><path fill="#000200" fill-rule="evenodd" stroke="#fff" d="M208.11 103.98A140.81 140.81 0 01289.32 182a139.75 139.75 0 0110.63 53.6 140.01 140.01 0 01-58.08 113.63l-2.68 1.94V200.13c1-22.42-8.36-40.2-21.8-54.45-12.84-13.62-29.44-24.08-44.4-32.35v261.83l-1.55.13c-1.04.08-2.17.16-3.38.23h-.01c-1.07.07-2.2.12-3.38.16l-1.73.06V374l-.49-278.11v-3.01l2.56 1.57 33.38 20.44L198.29 0c-7.27 9.44-18.28 17.6-30.07 26.35-25.6 18.99-54.96 40.77-55.86 83.7l.87 76.46 28.44-19.57 2.65-1.83-.01 3.22-.98 204.58-.01 1.91-1.9-.24c-1.06-.14-2.15-.3-3.27-.47h0c-.9-.14-2-.32-3.28-.55l-1.38-.25v-1.4l.03-185.35c-4.19 2.78-8.32 5.39-12.38 7.95-26.62 16.81-50.4 31.82-48.76 68.81v81.93l-2.77-2.33a140.3 140.3 0 01-36.93-48.13 140.02 140.02 0 01-13.08-59.2 139.74 139.74 0 0141.05-99.11 140.83 140.83 0 0142.05-28.95c.17-4.06.57-7.95 1.17-11.66.38-2.35.84-4.63 1.37-6.84l1.02-3.96C44.34 107.07 0 166.2 0 235.67c0 88.23 71.53 159.76 159.77 159.76 88.24 0 159.77-71.53 159.77-159.77 0-69.6-45.3-131.2-111.41-152.57z"/></svg>