<?xml version="1.0" encoding="UTF-8" standalone="no"?>
<svg
   xmlns:dc="http://purl.org/dc/elements/1.1/"
   xmlns:cc="http://creativecommons.org/ns#"
   xmlns:rdf="http://www.w3.org/1999/02/22-rdf-syntax-ns#"
   xmlns:svg="http://www.w3.org/2000/svg"
   xmlns="http://www.w3.org/2000/svg"
   xmlns:sodipodi="http://sodipodi.sourceforge.net/DTD/sodipodi-0.dtd"
   xmlns:inkscape="http://www.inkscape.org/namespaces/inkscape"
   version="1.1"
   width="319.54419"
   height="395.43381"
   id="svg14"
   viewBox="0 0 319.54419 395.4338"
   sodipodi:docname="LOGO.svg"
   inkscape:version="0.92.1 r15371">
  <metadata
     id="metadata20">
    <rdf:RDF>
      <cc:Work
         rdf:about="">
        <dc:format>image/svg+xml</dc:format>
        <dc:type
           rdf:resource="http://purl.org/dc/dcmitype/StillImage" />
        <dc:title></dc:title>
      </cc:Work>
    </rdf:RDF>
  </metadata>
  <defs
     id="defs18" />
  <sodipodi:namedview
     pagecolor="#ffffff"
     bordercolor="#666666"
     borderopacity="1"
     objecttolerance="10"
     gridtolerance="10"
     guidetolerance="10"
     inkscape:pageopacity="0"
     inkscape:pageshadow="2"
     inkscape:window-width="760"
     inkscape:window-height="403"
     id="namedview16"
     showgrid="false"
     inkscape:zoom="1.1213442"
     inkscape:cx="4.6155381"
     inkscape:cy="300.34549"
     inkscape:window-x="-7"
     inkscape:window-y="0"
     inkscape:window-maximized="0"
     inkscape:current-layer="svg14" />
  <path
     d="m 208.1132,103.9848 c 9.384,3.4476 18.3009,7.8719 26.6214,13.1468 8.7589,5.5537 16.8613,12.0511 24.1562,19.3459 12.9162,12.9162 23.3283,28.3558 30.4373,45.5196 6.8421,16.5192 10.6192,34.6233 10.6192,53.6001 0,22.5545 -5.3916,44.3385 -15.3315,63.7875 -9.9644,19.4938 -24.4967,36.6306 -42.7477,49.8382 l -2.6797,1.9388 v -3.3049 -147.6517 l 0.007,-0.0727 c 0.9884,-22.4269 -8.3618,-40.1956 -21.8001,-54.4499 -12.8477,-13.6266 -29.4497,-24.087 -44.3993,-32.3517 v 260.2747 1.5544 l -1.5511,0.1284 c -1.0458,0.0862 -2.1796,0.1656 -3.3893,0.2366 h -0.007 c -1.0695,0.0625 -2.199,0.1149 -3.3775,0.1554 l -1.7335,0.06 -0.003,-1.7428 -0.4832,-278.1093 -0.006,-3.01 2.5665,1.5714 33.3756,20.4407 L 198.2971,0 c -7.2729,9.4381 -18.2824,17.6039 -30.0749,26.3519 -25.5941,18.9835 -54.9645,40.77 -55.8659,83.6918 l 0.871,76.4638 28.4411,-19.569 2.6552,-1.8264 -0.0152,3.2195 -0.9817,204.5803 -0.009,1.9093 -1.8915,-0.2459 c -1.0644,-0.1385 -2.1576,-0.2965 -3.2736,-0.4688 l -8e-4,0.007 c -0.909,-0.1402 -2.0098,-0.3269 -3.2779,-0.5542 l -1.3863,-0.2492 9e-4,-1.4074 0.0338,-185.3468 c -4.1919,2.7845 -8.3205,5.3916 -12.3823,7.9564 -26.6222,16.809 -50.3932,31.8202 -48.7636,68.8107 l 0.007,0.0726 v 78.237 3.6175 l -2.7718,-2.3308 C 53.715,329.5494 41.2035,313.097 32.6752,294.7943 24.1563,276.5078 19.5986,256.3669 19.5986,235.5975 c 0,-18.9768 3.7762,-37.0817 10.6191,-53.6001 7.1082,-17.163 17.5195,-32.6026 30.4365,-45.5196 6.1645,-6.1645 12.9153,-11.7663 20.1603,-16.7135 6.8758,-4.6971 14.1977,-8.7986 21.8863,-12.2302 0.1731,-4.066 0.5719,-7.9504 1.1708,-11.665 0.3794,-2.3494 0.8381,-4.6286 1.3703,-6.8403 l 1.0172,-3.9571 C 44.3385,107.0762 0,166.1912 0,235.6617 c 0,88.2403 71.5318,159.7721 159.7721,159.7721 88.2403,0 159.7721,-71.5318 159.7721,-159.7721 0,-69.6082 -45.3058,-131.2077 -111.4191,-152.5727 z"
     style="fill:#000200;fill-rule:evenodd"
     id="path12"
     inkscape:connector-curvature="0" />
</svg>
