<svg xmlns="http://www.w3.org/2000/svg" width="319.544" height="395.434"><path d="M208.113 103.985a139.703 139.703 0 0126.622 13.147 140.813 140.813 0 0124.156 19.346 140.386 140.386 0 0130.437 45.52c6.842 16.518 10.62 34.622 10.62 53.6 0 22.554-5.392 44.338-15.332 63.787-9.965 19.494-24.497 36.63-42.748 49.838l-2.68 1.939V200.205l.007-.073c.989-22.426-8.361-40.195-21.8-54.45-12.847-13.626-29.45-24.086-44.399-32.351V375.16l-1.551.128c-1.046.086-2.18.166-3.39.237h-.006c-1.07.062-2.2.115-3.378.155l-1.733.06-.003-1.743-.484-278.109-.006-3.01 2.567 1.572 33.375 20.44L198.297 0c-7.273 9.438-18.282 17.604-30.075 26.352-25.594 18.983-54.964 40.77-55.866 83.692l.871 76.464 28.441-19.57 2.656-1.826-.016 3.22-.981 204.58-.01 1.91-1.89-.247a139.42 139.42 0 01-3.274-.469l-.001.007c-.91-.14-2.01-.326-3.278-.554l-1.386-.249v-1.407l.034-185.347c-4.192 2.784-8.32 5.392-12.382 7.956-26.622 16.81-50.393 31.82-48.764 68.811l.007.073v81.854l-2.771-2.33c-15.897-13.37-28.408-29.823-36.937-48.126-8.519-18.286-13.076-38.427-13.076-59.196 0-18.977 3.776-37.082 10.619-53.6a140.376 140.376 0 0130.436-45.52 140.827 140.827 0 0120.16-16.714 139.854 139.854 0 0121.887-12.23c.173-4.066.572-7.95 1.17-11.665a91.74 91.74 0 011.37-6.84l1.018-3.957C44.34 107.076 0 166.192 0 235.662c0 88.24 71.532 159.772 159.772 159.772s159.772-71.532 159.772-159.772c0-69.608-45.306-131.208-111.419-152.573z" fill="#fff" fill-rule="evenodd"/></svg>