<svg xmlns="http://www.w3.org/2000/svg" xmlns:xlink="http://www.w3.org/1999/xlink" data-name="Layer 1" width="895.597" height="639.824"><defs><linearGradient id="a" x1="758.38" y1="801.59" x2="758.38" y2="131.56" gradientTransform="rotate(4.65 1291.924 -1733.373)" gradientUnits="userSpaceOnUse"><stop offset="0" stop-color="gray" stop-opacity=".25"/><stop offset=".54" stop-color="gray" stop-opacity=".12"/><stop offset="1" stop-color="gray" stop-opacity=".1"/></linearGradient><linearGradient id="b" x1="685.97" y1="797.2" x2="685.97" y2="126.94" gradientTransform="rotate(-10.87 147.515 1302.021)" xlink:href="#a"/><linearGradient id="c" x1="517.93" y1="719.46" x2="517.93" y2="49.68" xlink:href="#a"/><linearGradient id="d" x1="356.17" y1="639.4" x2="356.17" y2="574" xlink:href="#a"/></defs><g transform="matrix(1.24123 0 0 1.24123 -41.631 198.831)"><rect transform="rotate(-12.752 -304.023 917.81)" rx="13.435" height="302.01" width="207.972" y="150.832" x="250.162" fill="#3f3d56"/><circle r="6" cy="87" cx="87.597" fill="#fff"/><circle r="6" cy="109" cx="93.597" fill="#fff"/><circle r="6" cy="270" cx="132.597" fill="#fff"/><circle r="6" cy="292" cx="138.597" fill="#fff"/><path fill="#f5f5f5" d="M134.39 143.649l121.797-27.564 4.594 20.3-121.796 27.564z"/></g><path fill="#8ac2cb" d="M144.513 82.472l251.774-56.98 82.745 365.616-251.773 56.98z"/><path fill="#f5f5f5" d="M198.397 111.885l151.176-34.214 5.703 25.197-151.177 34.213zM186.98 178.478l201.57-45.619 1.425 6.299-201.57 45.619zM190.307 193.175l201.569-45.618 1.425 6.298-201.569 45.619zM193.633 207.873l201.57-45.62 1.425 6.3-201.57 45.618zM196.96 222.571l96.585-21.859 1.426 6.299-96.585 21.859zM200.286 237.268l111.283-25.185 1.426 6.299-111.283 25.185zM203.613 251.966l201.569-45.619 1.425 6.299-201.569 45.619zM206.939 266.663l201.57-45.618 1.425 6.298-201.57 45.619zM210.265 281.362l186.871-42.292 1.425 6.299-186.87 42.292zM213.592 296.06l201.57-45.62 1.425 6.3-201.57 45.618zM216.917 310.758l104.985-23.76 1.425 6.299-104.984 23.76zM298.209 318.846l121.781-27.561 19.008 83.987-121.782 27.562z"/><g><path fill="#3f3d56" d="M496.878 14.201l250.03 64.196-93.223 363.087-250.03-64.197z"/><path opacity=".3" fill="#8ac2cb" d="M460.24 268.95l110.513 28.375-1.606 6.255-110.513-28.374zM456.493 283.546l200.174 51.396-1.606 6.255-200.174-51.396zM452.745 298.142l200.175 51.395-1.606 6.256-200.175-51.396zM448.998 312.739l185.578 47.648-1.606 6.255-185.578-47.648zM445.25 327.335l200.175 51.395-1.607 6.255-200.174-51.395zM518.06 43.755L639 74.806l-21.416 83.406-120.938-31.051zM584.053 176.274l120.938 31.051-21.415 83.406-120.938-31.051z"/></g><g transform="rotate(35.457 663.363 174.647) scale(1.24123)"><rect transform="rotate(-12.752 133.977 1044.81)" rx="13.435" height="302.01" width="207.972" y="277.832" x="688.162" fill="#8ac2cb"/><circle r="6" cy="214" cx="525.597" fill="#fff"/><circle r="6" cy="236" cx="531.597" fill="#fff"/><circle r="6" cy="397" cx="570.597" fill="#fff"/><circle r="6" cy="419" cx="576.597" fill="#fff"/><path fill="#f5f5f5" d="M572.39 270.649l121.797-27.565 4.594 20.3-121.796 27.565z"/></g><g><path fill="url(#b)" d="M214 93.34L696.42 0l125.44 657.75-482.42 93.34z" transform="translate(144.584 156.935) scale(.52887)"/><path fill="#e0e0e0" d="M262.094 210.32l248.263-48.032L574.91 500.78 326.648 548.82z"/><path fill="url(#c)" d="M272.31 49.68h491.24v669.78H272.31z" transform="translate(144.584 156.935) scale(.52887)"/><path fill="#fff" d="M292.102 187.98h252.806v344.682H292.102z"/><path stroke-miterlimit="10" d="M402.72 236.425a15.67 15.67 0 01-1.697-8.092 10.831 10.831 0 013.533-7.325c2.322-1.994 5.468-2.697 8.51-2.94 3.04-.244 6.124-.096 9.117-.693a19.04 19.04 0 0012.164-8.314c.19 2.353.381 4.76-.068 7.066-.45 2.306-1.635 4.6-3.634 5.817 2.422-1.126 2.158 1.518 1.634 3.1 1.2 1.46 4.115 1.702 4.263 3.59.148 1.889.122 3.84-.608 5.58-.73 1.74.053 4.813-1.82 4.945" fill="#fff" stroke="#fff" stroke-width=".52887"/><path d="M431.534 221.595s11.106.979 3.205 17.606" fill="#fff"/><path fill="url(#d)" d="M323.71 574h64.93v65.4h-64.93z" transform="translate(144.584 156.935) scale(.52887)"/><path fill="#8ac2cb" d="M318.741 463.49h28.416v28.623h-28.416z"/><path fill="#69f0ae" d="M377.356 317.385h82.885v5.965h-82.885z"/><path fill="#e0e0e0" d="M377.356 325.735h139.723v5.966H377.356zM377.356 334.081h139.723v5.966H377.356z"/><path fill="#8ac2cb" d="M377.356 466.468h82.885v5.966h-82.885z"/><path fill="#e0e0e0" d="M377.356 474.82h139.723v5.965H377.356zM377.356 483.17h139.723v5.966H377.356z"/><path fill="#69f0ae" d="M377.356 350.624h82.885v5.966h-82.885z"/><path fill="#e0e0e0" d="M377.356 358.975h139.723v5.966H377.356zM377.356 367.32h139.723v5.966H377.356z"/><g><path fill="#69f0ae" d="M377.356 383.864h82.885v5.965h-82.885z"/><path fill="#e0e0e0" d="M377.356 392.215h139.723v5.965H377.356zM377.356 400.56h139.723v5.966H377.356z"/></g><g><path fill="#8ac2cb" d="M377.356 433.223h82.885v5.966h-82.885z"/><path fill="#e0e0e0" d="M377.356 441.574h139.723v5.966H377.356zM377.356 449.925h139.723v5.966H377.356z"/></g><g><path fill="#8ac2cb" d="M377.356 262.985h82.885v5.965h-82.885z"/><path fill="#e0e0e0" d="M377.356 271.336h139.723v5.965H377.356zM377.356 279.687h139.723v5.965H377.356z"/></g><g><path fill="#8ac2cb" d="M377.356 229.74h82.885v5.966h-82.885z"/><path fill="#e0e0e0" d="M377.356 238.09h139.723v5.966H377.356zM377.356 246.442h139.723v5.965H377.356z"/></g></g></svg>